<?xml version="1.0" encoding="utf-8"?>
<!-- Generator: Adobe Illustrator 16.0.3, SVG Export Plug-In . SVG Version: 6.00 Build 0)  -->
<!DOCTYPE svg PUBLIC "-//W3C//DTD SVG 1.1//EN" "http://www.w3.org/Graphics/SVG/1.1/DTD/svg11.dtd">
<svg version="1.1" id="Layer_1" xmlns="http://www.w3.org/2000/svg" xmlns:xlink="http://www.w3.org/1999/xlink" x="0px" y="0px"
	 width="512px" height="512px" viewBox="0 0 512 512" enable-background="new 0 0 512 512" xml:space="preserve">
<g>
	<path fill="#C8EFF3" d="M382.198,182.427c-0.795,1.136-1.337,1.85-1.337,1.85c-2.628-0.991-4.997-2.2-6.927-3.846
		c-3.979-3.4-6.097-8.653-4.808-17.643c1.235-8.647,2.018-13.838-0.859-17.119c-0.525-0.6-0.722-1.417-0.65-2.313
		c0.323-3.963,6.001-9.393,11.749-3.821c4.604,4.472,3.841,9.912,3.338,13.695c-0.264,2.001-0.457,3.534,0.247,4.222
		c2.035,1.989,6.961,8.389,4.939,14.632C386.753,175.587,383.898,179.982,382.198,182.427z"/>
	<path fill="#C8EFF3" d="M403.804,188.083c-4.502,4.196-9.419,5.205-14.509,2.604c-4.11-2.103-5.727-4.134-5.727-4.134
		s-8.303-3.413-9.623-6.098c-0.001-0.007-0.009-0.017-0.012-0.024c-1.339-2.743-1.452-5.518-0.818-8.451
		c0.422-1.966,1.188-4.006,2.143-6.162c1.48-3.335,2.854-5.476,5.265-9.545c0.599-1.007,1.325-2.026,2.155-3.008
		c0.008-0.015,0.013-0.024,0.025-0.036c1.34-1.604,2.928-3.144,4.554-4.468c3.117-2.544,6.398-4.3,8.439-4.228
		c3.58,0.115,11.743,8.273,15.933,18.424c0.206,0.511,0.405,1.024,0.596,1.541c0.829,2.267,1.138,4.43,1.078,6.471
		c-0.04,1.37-0.25,2.68-0.588,3.934c-0.646,2.395-2.416,4.349-3.712,6.28C407.147,183.951,405.573,186.434,403.804,188.083z"/>
	<path fill="#C8EFF3" d="M432.005,166.823c-8.091,0.516-12.226,3.602-19.29,8.08c-0.934,0.587-1.908,1.2-2.958,1.835
		c0,0-0.098-0.125-0.255-0.361c-0.952-1.417-4.073-6.815,0.087-11.541c0.571-0.655,1.263-1.284,2.04-1.88
		c5.775-4.446,16.47-7.227,21.488-5.876c2.351,0.631,4.132,2.303,4.763,4.1C438.79,163.709,437.374,166.48,432.005,166.823z"/>
	<path fill="#C8EFF3" d="M428.699,158.992l-17.991,5.502l-1.119,0.342c0,0-8.246-2.908-4.672-8.003
		c0.349-0.499,0.777-0.986,1.258-1.457c1.03-1.018,2.34-1.973,3.771-2.857c4.72-2.898,10.835-5,13.329-5.867
		c3.603-1.245,13.53-0.784,15.316,3.434c0.089,0.211,0.164,0.416,0.23,0.615C440.086,154.589,437.16,157.276,428.699,158.992z"/>
	<path fill="#C8EFF3" d="M433.602,149.994l-3.318,1.065l-23.748,7.617l-7.454-8.253c0,0,1.061-0.842,2.729-2.096
		c0.935-0.695,2.058-1.529,3.293-2.414c2.167-1.551,4.685-3.271,7.127-4.756c6.326-3.85,15.01-6.205,19.991-3.654
		c2.76,1.414,3.694,3.676,3.527,6.197C435.622,145.731,434.781,147.934,433.602,149.994z"/>
	<path fill="#C8EFF3" d="M423.981,140.115l-19.901,11.189c0,0-13.06-3.077-11.208-5.532c1.854-2.449,14.369-12.689,22.43-13.667
		c1.396-0.172,2.567-0.188,3.555-0.068c4.374,0.504,5.054,3.583,5.118,7.227C423.979,139.542,423.981,139.829,423.981,140.115z"/>
	<path fill="#050505" d="M374.819,187.933c-3.268,6.248-37.719,46.899-39.662,54.499c-3.295,12.896,10.699,24.09,10.699,24.09
		l37.521-74.283L374.819,187.933z"/>
	<path fill="#A6DADD" d="M374.437,179.209c-3.403-2.889-6.958-0.293-7.346,3.136c-0.387,3.429,2.372,11.464,13.317,16.511
		c13.748,6.338,18.873-8.237,10.6-11.815C382.736,183.462,374.437,179.209,374.437,179.209z"/>
	<path fill="#A6DADD" d="M432.005,166.823c-5.188,0.331-9.719,2.156-14.133,4.816c-3.079,1.855-4.933,2.387-6.371,5.682
		c-1.355,3.106-4.748,7.605-7.063,10.058c-3.412,3.61-6.104,5.419-11.36,4.588c-4.04-0.638-6.418-3.502-9.635-5.463
		c-6.542-3.989-12.894-5.925-14.417-14.56c-0.972-5.497,0.572-11.002,1.039-16.464c0.18-2.113,0.398-4.416-0.153-6.496
		c-0.505-1.904-2.451-3.655-2.295-5.629c4.905,1.224,5.807,6.276,5.425,10.605c-0.517,5.846-1.223,11.397-0.072,17.257
		c1.326,6.771,4.514,9.487,10.697,11.575c0.868,0.293,1.266-0.019,1.941,0.333c1.76,0.913,2.838,2.723,4.889,3.494
		c12.544,4.721,14.141-7.838,20.839-14.463c3.287-3.251,10.253-8.04,15.035-8.11c3.985-0.058,9.6,2.266,11.51-2.864
		C439.252,164.995,435.029,166.63,432.005,166.823z"/>
	<path fill="#A6DADD" d="M387.77,174.934c0,0,1.432-7.183-0.21-10.52c-1.641-3.336-3.257-5.543-4.212-6.505
		c-0.833-0.836-0.964-3.13-0.67-4.646c0.008-0.015,0.013-0.024,0.025-0.036c1.34-1.604,2.928-3.144,4.554-4.468
		c-1.25,1.846-1.681,3.704-1.019,6.34C387.517,160.166,393.34,167.442,387.77,174.934z"/>
	<path fill="#A6DADD" d="M434.95,147.163c-8.99-3.388-21.992,1.71-28.608,8.056c-1.422-2.302-2.724-4.861-4.532-6.893
		c1.092-0.813,2.187-1.622,3.293-2.414c-0.32,2.677,1.521,5.433,4.322,4.635c1.485-0.423,5.585-2.016,7.596-2.849
		c4.426-1.835,7.529-2.33,11.875-2.61c1.876-0.121,5.365,0.137,6.853-1.389C435.653,144.893,435.386,146.047,434.95,147.163z"/>
	<path fill="#A6DADD" d="M434.216,157.471c-0.344-0.157-0.714-0.286-1.099-0.391c-5.019-1.351-15.713,1.43-21.488,5.876
		c-0.451,0.348-0.875,0.702-1.26,1.073c-1.255-1.412-2.986-5.803-3.397-7.056c-1.007-3.05-0.108-2.557,3.02-4.589
		c-0.759,1.922,0.221,5.013,2.095,6.014c2.521,1.344,6.946-0.57,9.304-1.247c5.792-1.662,14.646,0.073,17.432-6.451
		C439.957,154.198,437.314,156.234,434.216,157.471z"/>
	<path fill="#68476D" d="M373.827,181.11c-0.017-0.009-0.033-0.02-0.047-0.033c-4.629-4.34-6.084-9.819-4.868-18.32l0.043-0.3
		c1.202-8.405,1.929-13.479-0.849-16.646c-1.402-1.598-0.661-4.779,1.618-6.946c2.261-2.15,6.02-3.142,9.789,0.516
		c4.649,4.514,3.907,10.104,3.415,13.802c-0.259,1.952-0.464,3.493,0.172,4.113c2.575,2.518,6.935,8.863,4.994,14.855
		c-0.037,0.113-0.157,0.175-0.27,0.138c-0.114-0.037-0.175-0.157-0.139-0.27c1.875-5.792-2.376-11.963-4.886-14.417
		c-0.789-0.77-0.572-2.405-0.296-4.476c0.508-3.829,1.205-9.074-3.29-13.438c-4.47-4.339-8.168-1.489-9.195-0.513
		c-2.117,2.012-2.846,4.922-1.591,6.353c2.907,3.315,2.172,8.461,0.951,16.989l-0.043,0.3c-1.194,8.347,0.222,13.713,4.737,17.947
		c0.086,0.081,0.09,0.216,0.008,0.303C374.016,181.139,373.91,181.154,373.827,181.11z"/>
	<path fill="#A6DADD" d="M423.772,136.737c-3.892,0.647-8.071,2.306-11.542,4.419c-2.442,1.485-4.96,3.205-7.127,4.756
		c-1.235,0.885-2.358,1.719-3.293,2.414c-0.059,0.042-0.117,0.084-0.172,0.129c-0.011-0.011-0.022-0.022-0.034-0.033
		c-1.142-1.12-0.622-3.093,0.922-3.511c2.259-0.613,5.1-2.235,8.51-4.379c5.504-3.461,10.832-3.886,11.171-5.463
		c0.242-1.128-1.71-2.317-3.351-3.031C422.166,132.419,423.363,134.277,423.772,136.737z"/>
	<path fill="#A6DADD" d="M395.564,147.072c3.548,0.556,6.775,1.235,10.456,6.251c3.682,5.017,7.025,11.21,5.969,14.823
		c0,0-2.782-7.689-7.104-13.226C400.564,149.383,395.564,147.072,395.564,147.072z"/>
	<path fill="#68476D" d="M382.623,153.396c-0.014-0.007-0.026-0.016-0.038-0.026c-0.091-0.075-0.103-0.211-0.026-0.301
		c3.065-3.659,7.489-7.061,10.756-8.272c0.111-0.042,0.235,0.016,0.276,0.126c0.041,0.111-0.017,0.234-0.128,0.275
		c-3.203,1.189-7.553,4.538-10.576,8.146C382.822,153.422,382.711,153.442,382.623,153.396z"/>
	<path fill="#68476D" d="M412.122,164.686c-0.045-0.024-0.082-0.063-0.102-0.116c-2.932-8.052-8.2-14.422-11.819-17.429
		c-0.092-0.076-0.104-0.211-0.028-0.302c0.075-0.091,0.21-0.104,0.302-0.028c3.661,3.042,8.986,9.48,11.948,17.612
		c0.041,0.111-0.017,0.234-0.127,0.275C412.237,164.72,412.174,164.714,412.122,164.686z"/>
	<path fill="#68476D" d="M388.847,190.693c-3.578-1.889-5.155-3.658-5.411-3.961c-0.688-0.296-7.305-3.176-9.852-5.866
		c-0.082-0.087-0.078-0.222,0.009-0.303c0.085-0.082,0.221-0.078,0.302,0.008c2.57,2.715,9.686,5.756,9.757,5.788
		c0.033,0.012,0.062,0.035,0.084,0.063c0.016,0.021,1.647,2.023,5.658,4.073c5.27,2.694,10.332,1.787,14.251-2.554
		c3.027-3.354,6.377-8.251,8.959-13.103c0.056-0.104,0.185-0.144,0.289-0.089l0.001,0c0.104,0.055,0.145,0.186,0.089,0.29
		c-2.599,4.881-5.97,9.812-9.02,13.188c-4.003,4.434-9.385,5.398-14.765,2.648C389.08,190.815,388.962,190.753,388.847,190.693z"/>
	<path fill="#68476D" d="M412.91,175.117l-0.235-0.359c0.604-0.396,1.184-0.778,1.74-1.145c6.362-4.199,9.868-6.513,17.576-7.004
		c3.546-0.227,5.701-1.575,5.913-3.699c0.232-2.32-1.943-4.843-4.845-5.623c-5.132-1.381-15.685,1.512-21.305,5.841l-0.262-0.34
		c5.705-4.394,16.442-7.324,21.678-5.916c3.098,0.833,5.412,3.561,5.161,6.079c-0.112,1.114-0.95,3.743-6.313,4.085
		c-7.595,0.484-11.065,2.775-17.367,6.935C414.094,174.338,413.516,174.721,412.91,175.117z"/>
	<path fill="#68476D" d="M406.958,154.723c-0.023-0.013-0.044-0.029-0.063-0.049c-0.078-0.09-0.067-0.225,0.021-0.303
		c4.731-4.104,13.091-7.236,16.312-7.928c6.401-1.375,13.801-0.596,15.56,3.559c0.585,1.382,0.64,2.67,0.163,3.83
		c-0.627,1.523-2.153,2.792-4.538,3.771c-0.11,0.046-0.235-0.007-0.279-0.117c-0.045-0.109,0.008-0.235,0.116-0.28
		c2.274-0.933,3.723-2.124,4.304-3.537c0.433-1.05,0.378-2.227-0.16-3.5c-1.667-3.938-8.845-4.646-15.074-3.307
		c-3.184,0.685-11.448,3.779-16.121,7.833C407.129,154.755,407.033,154.763,406.958,154.723z"/>
	<path fill="#68476D" d="M401.763,148.478c-0.028-0.015-0.052-0.035-0.071-0.061c-0.071-0.095-0.053-0.229,0.043-0.3
		c2.65-1.991,6.603-4.845,10.383-7.146c6.019-3.664,14.905-6.371,20.199-3.658c3.783,1.931,4.679,4.985,2.818,9.588
		c-0.045,0.11-0.17,0.163-0.279,0.119c-0.107-0.045-0.163-0.169-0.118-0.279c1.784-4.415,0.989-7.206-2.616-9.046
		c-5.146-2.637-13.861,0.041-19.781,3.644c-3.765,2.292-7.705,5.138-10.348,7.122C401.923,148.511,401.834,148.514,401.763,148.478z
		"/>
	<path fill="#68476D" d="M393.612,145.031c-0.018-0.01-0.035-0.022-0.051-0.037c-0.084-0.084-0.084-0.22,0-0.304
		c2.951-2.963,14.026-11.864,21.716-12.798c5.358-0.65,8.044,0.835,8.711,4.817c0.02,0.117-0.06,0.227-0.176,0.247
		c-0.118,0.02-0.229-0.06-0.247-0.176c-0.443-2.647-1.771-5.247-8.236-4.462c-7.16,0.87-18.105,9.304-21.464,12.675
		C393.797,145.062,393.694,145.074,393.612,145.031z"/>
	<path fill="#68476D" d="M377.318,197.317c-8.437-4.454-10.807-11.732-10.439-14.997c0.298-2.63,2.337-4.637,4.643-4.568
		l-0.014,0.429c-2.085-0.062-3.931,1.777-4.202,4.188c-0.157,1.391,0.28,4.718,2.913,8.366c2.047,2.838,6.055,6.629,13.516,8.579
		c4.98,1.301,7.721-0.014,9.143-1.345c1.813-1.696,2.291-4.188,1.961-5.905l0.422-0.082c0.325,1.698-0.025,4.368-2.09,6.3
		c-1.5,1.405-4.374,2.797-9.544,1.447C381.222,199.1,379.13,198.274,377.318,197.317z"/>
	<path fill="#C8EFF3" d="M371.957,181.807c-1.991-1.051-3.771,3.607-0.773,7.494c2.996,3.887,9.259,7.412,14.275,8.304
		c5.018,0.893,7.783-2.476,5.737-4.214c-2.046-1.739-6.264-1.442-8.584-4.532c0,0-4.659-1.362-7.089-3.413
		S372.844,182.275,371.957,181.807z"/>
	<path fill="#E3FEFF" d="M390.561,150.797c2.699-2.01,8.304,1.457,9.534,6.058c0,0,8.398,2.386,7.868,13.374
		c-0.534,10.987-10.064,2.151-10.743-9.038C397.22,161.191,385.557,154.521,390.561,150.797z"/>
	<path fill="#E3FEFF" d="M383.372,160.393c1.736,1.977,4.894,8.401,2.421,12.253c-2.473,3.853-7.239,1.447-8.019-4.562
		c-0.779-6.009,1.265-10.089,1.709-14.464s-6.454-8.566-6.739-11.352c-0.285-2.785,3.785-4.257,6.004-0.562
		c2.22,3.696,2.841,7.971,2.135,13.42C380.586,157.422,381.636,158.415,383.372,160.393z"/>
	<path fill="#E3FEFF" d="M415.942,164.087c0.945,1.908,8.66-2.783,15.054-1.383c4.174,0.914,6.896-1.627,3.029-3.45
		s-9.611,0.743-11.918,0.952C419.801,160.416,414.986,162.156,415.942,164.087z"/>
	<path fill="#E3FEFF" d="M414.951,151.929c-1.95,2.084,0.374,4.698,3.386,3.982c3.013-0.715,7.647-2.219,13.386-2.482
		c5.736-0.264,4.722-5.41,0.657-6.238C428.318,146.363,417.976,148.696,414.951,151.929z"/>
	<path fill="#E3FEFF" d="M409.479,147.119c1.435,2.468,11.366-4.482,16.574-4.367s5.651-4.26,3.325-5.05
		c-2.328-0.789-7.548-1.147-14.752,3.409C409.519,144.341,408.558,145.535,409.479,147.119z"/>
	<path fill="#E3FEFF" d="M400.368,140.535c0.57,1.691,2.817,2.146,6.872-0.543c4.054-2.688,9.021-4.75,11.146-5.312
		c2.126-0.561-0.134-3.071-5.586-1.339C407.35,135.073,400.368,140.535,400.368,140.535z"/>
	<path fill="#E3FEFF" d="M388.151,177.953c1.789-2.349,5.576-0.788,9.824-0.521c4.25,0.267,5.336,2.158,3.766,4.512
		c-1.572,2.354-8.478,4.415-11.666,1.305C386.887,180.14,388.151,177.953,388.151,177.953z"/>
	<path fill="#E3FEFF" d="M373.312,185.962c4.165,2.198,14.306,6.308,14.607,8.369c0.303,2.062-4.08,2.603-9.824-0.795
		C372.352,190.137,370.28,184.361,373.312,185.962z"/>
</g>
<g>
	<path fill="#050505" d="M120.006,199.245c7.979,9.117,38.704,72.267,38.704,72.267s13.726-18.297,9.803-27.803
		c-8.467-20.516-38.911-51.937-38.911-51.937L120.006,199.245z"/>
	<path fill="#C8EFF3" d="M134.762,190.744c0.057,3.555-1.787,7.962-5.983,10.686c-2.526,1.638-5.488,2.329-8.243,2.245
		c-4.843-0.131-9.063-2.634-9.222-6.521c-0.243-6.105,21.007-11.603,21.007-11.603C133.873,186.426,134.735,188.4,134.762,190.744z"
		/>
	<path fill="#A6DADD" d="M134.762,190.744c-2.984,3.308-9.422,5.754-12.959,6.086c-4.36,0.412-6.391,3.317-1.268,6.845
		c-4.843-0.131-9.063-2.634-9.222-6.521c-0.243-6.105,21.007-11.603,21.007-11.603C133.873,186.426,134.735,188.4,134.762,190.744z"
		/>
	<path fill="#C8EFF3" d="M134.884,184.821c-0.3,0.969-0.655,1.825-1.066,2.593c-0.992,1.843-2.335,3.181-4.216,4.359
		c-0.501,0.318-1.038,0.623-1.618,0.922c-0.959,0.501-1.844,0.833-2.62,1.053c-2.186,0.622-3.547,0.355-3.547,0.355
		c-0.023,0.023-0.042,0.047-0.065,0.07c-2.887,3.195-8.646,5.269-14.344,0.538c-3.678-3.051-6.199-7.106-7.542-10.943
		c-0.749-2.147-1.128-4.229-1.128-6.03c0-5.006,9.404-12.211,15.753-14.166c6.349-1.951,9.282-4.15,11.111-2.564
		c1.773,1.53,1.834,5.348,4.805,8.464c0.107,0.107,0.216,0.22,0.327,0.327C134.028,172.975,136.105,180.914,134.884,184.821z"/>
	<path fill="#A6DADD" d="M129.602,191.773c-0.501,0.318-1.038,0.623-1.618,0.922c-0.959,0.501-1.844,0.833-2.62,1.053
		c-2.186,0.622-3.547,0.355-3.547,0.355c-0.023,0.023-0.042,0.047-0.065,0.07c-1.951-1.127-3.757-2.905-4.833-5.68
		c-3.368-8.674,2.171-13.521,7.897-17.058l0.201-0.065l4.402,19.71L129.602,191.773z"/>
	<path fill="#C8EFF3" d="M118.439,182.54c-0.488-7.164,6.106-11.479,13.189-13.433c7.082-1.954,3.744-9.443,10.583-10.583
		s8.955,3.582,8.955,5.535c0,1.954-2.442,4.885-9.28,8.467c-6.839,3.583-4.146,9.808-7.734,14.491
		c-0.795,1.037-1.738,2.634-2.875,3.645c-3.852,3.422-9.062,5.35-10.802,1.077C118.871,187.804,118.439,182.54,118.439,182.54z"/>
	<path fill="#C8EFF3" d="M125.602,161.007l-10.143,4.777c0,0-0.6-0.459-1.451-1.446c-0.795-0.917-1.81-2.292-2.773-4.183
		c-2.097-4.112-4.314-16-3.706-21.619c0.613-5.614,4.763-12.089,9.896-11.598c5.127,0.486,3.415,7.326,3.294,16.36
		C120.596,152.338,123.407,156.244,125.602,161.007z"/>
	<path fill="#C8EFF3" d="M116.447,163.815c0,0-7.448,7.574-10.261,6.84c-2.807-0.734-9.525-6.105-15.752-12.333
		c-6.228-6.227-7.448-15.144-5.619-19.785c0.992-2.513,2.915-4.379,4.974-4.365c1.744,0.015,3.588,1.385,5.043,4.856
		c2.602,6.209,7.921,12.174,14.4,17.554c1.418,1.179,2.892,2.33,4.402,3.448L116.447,163.815z"/>
	<path fill="#C8EFF3" d="M105.087,169.433l-2.199,6.962c0,0-1.619,0.379-4.112,0.734c-3.818,0.548-9.689,1.034-14.935-0.004
		c-8.374-1.647-10.938-6.714-9.899-11.019c0.038-0.154,0.08-0.309,0.126-0.458c1.348-4.398,5.133-3.663,12.459-1.222
		c5.399,1.802,10.466,1.876,12.759,1.792c0.646-0.028,1.076-0.065,1.226-0.075c0.042-0.004,0.061-0.009,0.061-0.009l0.352,0.257
		c0.004,0,0.004,0,0.009,0.005l0.019,0.015c0.01,0.004,0.01,0.009,0.01,0.009L105.087,169.433z"/>
	<path fill="#A6DADD" d="M113.615,163.87c-2.377,0.866-4.609,2.144-6.684,3.581c-0.614,0.426-2.144,2.166-2.889,2.221
		c-0.5,0.036-2.497-1.648-2.843-1.9c-4.486-3.267-9.281-7.19-12.66-11.615c-2.775-3.637-4.52-8.311-4.502-12.912
		c0.013-3.346,1.444-9.103,5.75-9.073c-2.738,3.453-3.383,9.256-2.731,13.455c0.786,5.076,4.802,8.979,8.351,12.41
		c2.539,2.455,6.412,6.57,10.311,5.72c4.951-1.081,5.011-5.135,3.514-9.175C111.22,158.222,111.907,161.74,113.615,163.87z"/>
	<path fill="#C8EFF3" d="M104.665,181.967c0,0-0.771,0.669-2.059,1.633c-2.475,1.848-6.868,4.786-11.401,6.161
		c-6.9,2.092-10.69-0.813-11.383-4.463c-0.154-0.81-0.126-1.483,0.085-2.059c0.715-2.007,3.602-2.746,8.435-3.569
		c4.01-0.679,7.331-2.208,9.185-3.205c1.015-0.547,1.59-0.936,1.59-0.936l1.217,0.168l3.289,0.459L104.665,181.967z"/>
	<path fill="#A6DADD" d="M104.684,169.139c-3.115,2.545-5.549,5.492-5.899,7.99c-0.005,0-0.005,0-0.009,0
		c-3.818,0.548-9.689,1.034-14.935-0.004c-8.374-1.647-10.938-6.714-9.899-11.019c1.427,3.916,5.118,7.626,11.565,8.66
		c9.432,1.516,11.958,0.758,14.147-2.273c1.946-2.695,2.209-5.118,1.306-6.073L104.684,169.139z"/>
	<path fill="#A6DADD" d="M120.455,161.966c-4.463,0.59-6.84,1.904-6.84,1.904c-1.757-0.468-1.917-2.637-2.696-4.388
		c-1.666-3.743-2.178-8.101-2.952-12.093c-1.126-5.803-1.183-19.811,9.457-20.451c-6.746,1.593-6.347,13.785-5.818,18.824
		C112.125,150.724,114.09,161.202,120.455,161.966z"/>
	<path fill="#A6DADD" d="M100.399,185.162c-2.489,1.666-5.802,3.57-9.193,4.599c-6.9,2.092-10.69-0.813-11.383-4.463
		c-0.154-0.81-0.126-1.483,0.085-2.059c1.234,2.812,6.143,5.348,11.41,4.159c5.979-1.348,7.242-5.979,6.316-10.189
		c-0.065-0.286-0.099-0.529-0.107-0.744c-0.08-1.398,0.837-1.483,1.834-1.17c-0.398,0.848-0.623,1.671-0.623,2.442
		C98.738,179.922,99.294,182.524,100.399,185.162z"/>
	<path fill="#68476D" d="M130.336,169.554c-0.041,0-0.083-0.017-0.114-0.049c-1.608-1.721-2.345-3.602-2.994-5.261
		c-0.516-1.317-0.96-2.455-1.727-3.119c-0.065-0.057-0.072-0.155-0.016-0.221c0.057-0.064,0.155-0.071,0.221-0.016
		c0.824,0.715,1.282,1.886,1.813,3.241c0.639,1.634,1.364,3.485,2.932,5.161c0.059,0.063,0.056,0.162-0.008,0.221
		C130.413,169.54,130.374,169.554,130.336,169.554z"/>
	<path fill="#68476D" d="M114.454,197.64c-2.279,0-4.745-0.816-7.146-2.809c-5.995-4.975-8.727-12.349-8.727-17.094
		c0-5.208,9.6-12.388,15.863-14.314c0.716-0.221,1.429-0.456,2.178-0.72c0.081-0.028,0.171,0.014,0.199,0.095
		c0.029,0.082-0.014,0.171-0.096,0.199c-0.753,0.266-1.469,0.502-2.189,0.724c-6.034,1.857-15.643,9.025-15.643,14.017
		c0,4.675,2.696,11.943,8.614,16.854c5.408,4.488,11.148,2.839,14.193-0.594c0.031-0.036,0.076-0.058,0.128-0.052
		c0.022,0,2.371,0.147,6.096-1.394c2.763-1.143,5.101-3.287,6.253-5.735c0.036-0.078,0.129-0.112,0.208-0.075
		c0.078,0.037,0.111,0.13,0.074,0.208c-1.185,2.517-3.583,4.719-6.416,5.892c-3.464,1.434-5.716,1.436-6.159,1.42
		C120.098,196.245,117.435,197.64,114.454,197.64z"/>
	<path fill="#68476D" d="M133.73,188.134c-0.031,0-0.062-0.009-0.089-0.027c-0.071-0.05-0.089-0.146-0.04-0.218
		c0.181-0.261,0.357-0.629,0.499-0.925c0.096-0.199,0.172-0.356,0.231-0.45c1.33-2.054,1.715-4.056,2.087-5.992
		c0.584-3.035,1.135-5.901,5.395-8.133c8.003-4.192,9.197-7.018,9.197-8.329c0-1.08-0.646-2.789-2.063-3.99
		c-1.619-1.372-3.939-1.854-6.71-1.392c-3.344,0.558-4.191,2.673-5.089,4.913c-0.922,2.297-1.874,4.673-5.479,5.667
		c-6.879,1.897-13.589,4.463-13.528,12.975c0.011,1.502,0.085,3.118,0.547,4.759c0.022,0.083-0.025,0.169-0.108,0.192
		c-0.082,0.023-0.169-0.024-0.192-0.107c-0.472-1.676-0.547-3.317-0.558-4.842c-0.063-8.732,6.762-11.348,13.757-13.277
		c3.455-0.953,4.379-3.256,5.271-5.482c0.931-2.324,1.812-4.519,5.328-5.104c3.618-0.603,5.783,0.462,6.963,1.461
		c1.502,1.271,2.174,3.041,2.174,4.229c0,2.387-3.326,5.442-9.364,8.605c-4.127,2.161-4.64,4.828-5.233,7.915
		c-0.378,1.966-0.768,3.998-2.131,6.104c-0.05,0.076-0.125,0.233-0.213,0.416c-0.146,0.305-0.329,0.686-0.523,0.967
		C133.827,188.111,133.779,188.134,133.73,188.134z"/>
	<path fill="#68476D" d="M113.677,163.978c-0.046,0-0.091-0.02-0.122-0.058c-0.92-1.125-1.747-2.366-2.459-3.69
		c-2.269-4.224-4.32-16.193-3.721-21.709c0.646-5.944,4.936-12.229,10.062-11.739c4.213,0.401,3.975,4.94,3.644,11.223
		c-0.089,1.685-0.181,3.427-0.205,5.299c-0.103,7.563,1.875,11.549,3.788,15.405c0.359,0.725,0.731,1.475,1.082,2.233
		c0.036,0.079,0.002,0.171-0.077,0.208c-0.077,0.036-0.17,0.001-0.207-0.077c-0.349-0.755-0.719-1.503-1.078-2.226
		c-1.929-3.889-3.924-7.91-3.82-15.549c0.025-1.878,0.117-3.623,0.206-5.311c0.334-6.336,0.554-10.522-3.362-10.896
		c-4.947-0.471-9.091,5.663-9.721,11.463c-0.596,5.472,1.438,17.342,3.686,21.527c0.702,1.306,1.518,2.531,2.426,3.641
		c0.055,0.066,0.045,0.165-0.022,0.22C113.746,163.966,113.711,163.978,113.677,163.978z"/>
	<path fill="#68476D" d="M103.985,169.73c-0.026,0-0.054-0.007-0.078-0.021c-3.389-1.966-8.594-6.287-13.583-11.277
		c-6.071-6.07-7.642-14.911-5.652-19.95c1.063-2.689,3.046-4.441,5.054-4.463c1.431-0.022,3.522,0.831,5.249,4.948
		c2.471,5.89,7.571,11.999,15.161,18.158c0.066,0.054,0.077,0.152,0.022,0.22c-0.055,0.066-0.152,0.077-0.22,0.022
		c-7.63-6.191-12.762-12.342-15.252-18.279c-1.659-3.957-3.622-4.773-4.958-4.757c-1.88,0.02-3.751,1.694-4.766,4.265
		c-1.91,4.839-0.319,13.714,5.582,19.615c4.972,4.972,10.152,9.274,13.519,11.229c0.075,0.043,0.101,0.139,0.057,0.213
		C104.091,169.701,104.038,169.73,103.985,169.73z"/>
	<path fill="#68476D" d="M90.72,177.892c-2.284,0-4.653-0.167-6.91-0.612c-5.531-1.09-8.021-3.538-9.137-5.4
		c-1.141-1.902-1.407-4.132-0.752-6.277c0.425-1.39,1.104-2.31,2.077-2.812c2.028-1.046,5.153-0.32,10.577,1.488
		c5.307,1.769,10.175,1.882,12.604,1.792c0.09-0.003,0.158,0.063,0.162,0.15c0.003,0.086-0.064,0.158-0.15,0.161
		c-2.451,0.091-7.361-0.023-12.714-1.808c-5.223-1.74-8.416-2.496-10.335-1.507c-0.895,0.462-1.523,1.32-1.922,2.626
		c-0.63,2.06-0.373,4.199,0.721,6.025c1.083,1.808,3.511,4.186,8.93,5.255c5.17,1.02,10.948,0.563,14.885,0.002
		c0.085-0.013,0.165,0.048,0.177,0.133c0.013,0.085-0.047,0.164-0.132,0.177C96.554,177.606,93.71,177.892,90.72,177.892z"/>
	<path fill="#68476D" d="M86.902,190.62c-1.989,0-3.396-0.527-4.334-1.096c-1.533-0.929-2.563-2.419-2.9-4.197
		c-0.219-1.157-0.077-2.077,0.434-2.812c1.068-1.536,3.605-2.215,8.217-2.999c2.296-0.39,4.625-1.1,6.924-2.111
		c0.079-0.034,0.171,0.001,0.205,0.08c0.035,0.079-0.001,0.171-0.08,0.206c-2.321,1.021-4.676,1.739-6.997,2.134
		c-4.426,0.751-7.013,1.432-8.013,2.869c-0.46,0.662-0.585,1.504-0.383,2.575c0.321,1.689,1.299,3.105,2.755,3.988
		c1.461,0.884,4.108,1.663,8.431,0.354c2.763-0.837,5.92-2.415,9.131-4.564c0.072-0.048,0.169-0.028,0.217,0.043
		c0.048,0.072,0.029,0.169-0.043,0.217c-3.282,2.197-6.383,3.746-9.215,4.604C89.564,190.422,88.122,190.62,86.902,190.62z"/>
	<path fill="#68476D" d="M120.905,203.926c-2.111,0-4.178-0.447-5.94-1.358c-2.414-1.25-3.793-3.169-3.883-5.404
		c-0.002-0.077-0.002-0.153,0-0.229l0.468,0.019c-0.002,0.063-0.002,0.128,0,0.192c0.083,2.061,1.372,3.839,3.63,5.007
		c3.95,2.044,9.489,1.665,13.472-0.92c5.734-3.722,6.844-10.551,5.115-13.808l0.413-0.22c2.054,3.869,0.393,10.742-5.273,14.42
		C126.563,203.146,123.695,203.926,120.905,203.926z"/>
	<path fill="#A6DADD" d="M100.572,166.135c0.141,0.07,0.271,0.159,0.379,0.271c-0.004-0.005-0.014-0.005-0.019-0.01
		s-0.005-0.005-0.009-0.005c-0.188-0.112-0.328-0.196-0.412-0.248C100.375,166.055,100.38,166.046,100.572,166.135z"/>
	<path fill="#E3FEFF" d="M114.308,166.177c-4.844,4.212-11.621,6.653-13.165,11.396c-1.957,6.015,8.702,20.296,12.238,15.608
		c3.537-4.688-3.677-11.763-1.431-15.805c2.245-4.042,14.176-7.41,12.716-11.116C123.206,162.556,118.182,162.809,114.308,166.177z"
		/>
	<path fill="#E3FEFF" d="M120.961,187.736c-1.404-5.502-1.517-10.947,5.67-13.755c7.187-2.807,11.229-4.379,12.351-3.368
		c1.123,1.011-3.817,5.502-4.827,9.656c-1.011,4.154-4.491,9.881-7.748,10.555C123.151,191.497,121.373,189.353,120.961,187.736z"/>
	<path fill="#E3FEFF" d="M144.428,167.777c4.534-2.134,5.137-5.399,1.46-7.326c-3.677-1.926-5.306,3.958-4.969,5.39
		S142.996,168.45,144.428,167.777z"/>
	<path fill="#E3FEFF" d="M96.96,167.272c-8.562-0.744-16.843-3.368-18.948-3.031s-0.505,5.053,5.306,6.652
		c5.811,1.601,10.358,1.348,13.137,0.421C99.234,170.388,98.897,167.441,96.96,167.272z"/>
	<path fill="#E3FEFF" d="M107.823,157.419c-4.211-2.695-13.643-14.148-15.158-19.116c-1.516-4.969-6.737,2.105-2.021,10.189
		s11.874,14.484,15.411,13.222C109.592,160.45,107.823,157.419,107.823,157.419z"/>
	<path fill="#E3FEFF" d="M118.658,129.292c-1.908-0.112-7.031,21.577,2.358,30.878c0,0,3.48,2.47,1.685-1.572
		c-1.797-4.042-4.155-10.667-3.369-17.629c0.786-6.961,1.249-8.646,0.66-10.372C119.403,128.87,118.658,129.292,118.658,129.292z"/>
	<path fill="#E3FEFF" d="M96.202,178.725c0.529,1.291-2.99,5.643-7.032,6.189c-4.042,0.548-8.632-0.8-7.284-2.442
		c1.348-1.642,4.337-0.042,8.084-1.179C93.718,180.156,95.529,177.082,96.202,178.725z"/>
</g>
<g>
	<g>
		<path fill="#96D3D6" d="M231.299,368.822c4.397,0.111,7.304-0.983,12.073,1.893s5.639,5.828,3.747,7.342
			c-1.893,1.514-7.191,3.18-13.928,1.362c-6.736-1.816-8.78-4.995-6.963-7.721C228.044,368.973,231.299,368.822,231.299,368.822z"/>
		<path d="M231.896,382.316c1.626-35.442,2.243-70.983,2.04-106.463c-0.012-2.024-0.172-4.109-0.063-6.127
			c0.22-4.068,5.281-6.357,8.039-2.887c1.499,1.886,0.881,4.601,0.775,6.82c-0.102,2.105-0.189,4.213-0.283,6.319
			c-0.673,15.09-1.065,30.189-1.408,45.29c-0.277,12.193-0.45,24.392-0.529,36.588c-0.024,3.757-0.035,7.513-0.033,11.269
			c0.002,3.2,0.529,6.871-0.007,10.025C239.544,388.354,231.617,387.632,231.896,382.316z"/>
		<path fill="#C8EFF3" d="M239.776,414.472c-12.355,4.323-40.209,7.549-57.686-1.177c-4.818-2.405-7.767-6.245-9.171-10.682
			c-3.696-11.656,3.259-27.446,14.953-32.249c9.655-3.969,22.914-2.165,30.777,8.566c1.35,1.838,2.54,3.939,3.524,6.324
			c0.425,1.018,0.807,2.09,1.152,3.213c2.17,7.081,6.094,8.427,10.164,7.325c3.747-1.018,7.624-4.108,10.37-6.707
			c2.292-2.17,3.801-3.999,3.801-3.999C250.785,397.584,252.131,410.149,239.776,414.472z"/>
		<path fill="#C8EFF3" d="M247.66,385.087c0,0-0.105,2.396-0.715,5.445c-0.866,4.336-2.754,9.979-6.812,11.888
			c-6.905,3.246-21.286-8.919-21.286-8.919s1.366-3.128,2.876-7.056c0.147-0.392,0.299-0.786,0.45-1.19
			c1.022-2.725,2.056-5.706,2.729-8.242c0.147-0.546,0.273-1.072,0.383-1.572l15.407,6.644L247.66,385.087z"/>
		<path fill="#A6DADD" d="M235.31,384.868c0,4.037,0.193,7.965-1.821,10.925c-1.775,2.595-3.524,3.903-5.597,3.002
			c-3.482-1.514-4.306-7.145-6.169-12.35c-1.051-2.932-2.06-5.715-3.074-7.515c1.35,1.838,2.54,3.939,3.524,6.324
			c1.022-2.725,2.056-5.706,2.729-8.242L235.31,384.868z"/>
		<path fill="#A6DADD" d="M239.776,414.472c-12.355,4.323-40.209,7.549-57.686-1.177c-4.818-2.405-7.767-6.245-9.171-10.682
			c0.193-1.602,0.861-2.857,2.443-2.909c9.234-0.304,5.141,6.427,23.313,12.262c16.5,5.298,28.611,3.86,39.36,0.832
			c10.748-3.027,9.916-18.847,9.083-21.874c-0.038-0.14-0.097-0.27-0.172-0.392c-0.475-0.753-1.648-1.224-3.086-1.446
			c-3.461-0.538-7.88,0.097-8.852,2.632l-3.111-9.402l8.797-0.231l6.968,3.003C250.785,397.584,252.131,410.149,239.776,414.472z"/>
		<path fill="#C8EFF3" d="M250.827,382.833c-4.167,6.804-15.908,4.306-21.728,1.581c-5.151-2.414-11.228-9.369-4.941-14.032
			c0.542-0.404,1.11-0.77,1.712-1.077c0.643-0.332,1.32-0.593,2.04-0.757c0.92-0.214,3.822-0.724,4.512,0.118
			c0.244,0.299,0.244,1.867-0.025,2.161c-0.509,0.555-2.43,0.282-3.128,0.505c-3.246,1.06-1.077,4.074,0.816,5.311
			c3.242,2.12,7.111,2.936,10.828,2.321c1.631-0.269,6.025-0.492,5.147-3.431c-0.883-2.952-5.588-3.432-5.588-3.432
			s-0.042-0.261-0.189-1.198c-0.08-0.518,0.135-1.06,0.16-1.59c2.086,0.248,4.857,1.446,7.14,3.229
			c0.004,0.004,0.004,0.004,0.004,0.004C250.911,375.138,253.199,378.955,250.827,382.833z"/>
		<path d="M232.459,368.936c0.004-0.076,0.008-0.152,0.008-0.228C232.585,368.78,232.573,368.856,232.459,368.936z"/>
		<path fill="#A6DADD" d="M250.827,382.833c-4.167,6.804-15.908,4.306-21.728,1.581c-5.151-2.414-11.228-9.369-4.941-14.032
			c0.542-0.404,1.11-0.77,1.712-1.077c-2.674,2.343-4.407,5.219-1.989,8.07c2.952,3.481,15.138,9.234,23.086,4.769
			c4.575-2.569,2.88-6.619,0.618-9.597C250.911,375.138,253.199,378.955,250.827,382.833z"/>
		<g>
			<path fill="#68476D" d="M210.514,419.124c-10.084,0.001-20.455-1.522-28.554-5.566c-7.103-3.546-10.921-10.599-10.475-19.349
				c0.549-10.785,7.245-20.703,16.284-24.119c7.092-2.681,15.259-2.352,21.846,0.881c6.669,3.272,11.508,9.293,13.994,17.411
				c0.774,2.528,1.818,4.439,3.104,5.68c0.116,0.112,0.12,0.298,0.007,0.415c-0.112,0.115-0.298,0.119-0.415,0.007
				c-1.357-1.311-2.454-3.306-3.257-5.93c-2.437-7.96-7.171-13.857-13.691-17.058c-6.443-3.162-14.436-3.482-21.38-0.858
				c-8.828,3.336-15.368,13.041-15.906,23.601c-0.433,8.508,3.268,15.358,10.152,18.795c17.081,8.528,44.383,5.734,57.456,1.16
				c12.087-4.229,10.904-16.208,7.825-28.522c-0.039-0.157,0.056-0.316,0.213-0.355c0.157-0.041,0.316,0.056,0.355,0.213
				c3.146,12.585,4.331,24.835-8.199,29.219C232.893,417.189,221.885,419.124,210.514,419.124z"/>
			<path fill="#68476D" d="M222.205,385.47c-0.034,0-0.069-0.007-0.103-0.019c-0.151-0.058-0.228-0.227-0.171-0.378
				c0.606-1.619,1.145-3.139,1.599-4.515c0.051-0.154,0.218-0.237,0.37-0.187c0.154,0.051,0.237,0.216,0.187,0.37
				c-0.457,1.384-0.998,2.91-1.607,4.537C222.435,385.397,222.323,385.47,222.205,385.47z"/>
		</g>
		<path fill="#68476D" d="M240.842,387.34c-1.37,0-2.818-0.122-4.309-0.366c-0.901-0.147-1.81-0.339-2.701-0.568
			c-3.506-0.909-6.663-2.387-8.663-4.054c-0.588-0.492-1.119-0.998-1.577-1.505c-3.794-4.18-2.72-7.926-0.449-10.036
			c1.932-1.797,4.135-2.989,8.538-2.926c0.674,0.009,1.021,0.047,1.248,0.079c0.16,0.022,0.271,0.171,0.249,0.331
			s-0.17,0.274-0.331,0.249c-0.21-0.03-0.532-0.064-1.174-0.073c-4.203-0.046-6.302,1.068-8.131,2.769
			c-2.066,1.921-3.023,5.35,0.484,9.214c0.441,0.487,0.952,0.974,1.519,1.448c1.936,1.614,5.01,3.049,8.435,3.936
			c0.874,0.227,1.765,0.414,2.648,0.559c3.901,0.64,7.484,0.419,10.088-0.622c0.281-0.112,0.533-0.226,0.771-0.347l0.04-0.02
			c0.037-0.019,0.072-0.035,0.107-0.057c1.284-0.673,2.269-1.568,2.945-2.671c1.221-1.997,1.308-4.072,0.256-6.166
			c-1.96-3.907-7.32-6.706-11.16-7.06c-0.161-0.015-0.28-0.157-0.265-0.318c0.015-0.161,0.163-0.275,0.318-0.266
			c3.997,0.368,9.58,3.294,11.63,7.38c1.132,2.256,1.035,4.585-0.28,6.735c-0.732,1.195-1.793,2.162-3.155,2.874
			c-0.033,0.021-0.084,0.047-0.138,0.073l-0.035,0.018c-0.251,0.128-0.52,0.249-0.817,0.367
			C245.237,386.995,243.15,387.34,240.842,387.34z"/>
		<path fill="#68476D" d="M238.869,379.362c-2.473,0-4.782-0.466-6.89-1.391c-3.468-1.522-5.242-3.599-4.63-5.42
			c0.58-1.727,2.647-1.811,5.041-1.909c0.163-0.002,0.298,0.119,0.305,0.281c0.007,0.161-0.119,0.298-0.28,0.305
			c-2.525,0.103-4.088,0.257-4.509,1.51c-0.5,1.485,1.192,3.328,4.31,4.697c2.592,1.138,5.508,1.554,8.667,1.238
			c2.462-0.246,4.004-0.832,4.581-1.741c0.304-0.479,0.334-1.045,0.092-1.73c-0.858-2.429-5.2-3.057-5.244-3.061
			c-0.161-0.019-0.277-0.163-0.259-0.324c0.017-0.16,0.16-0.277,0.323-0.259c0.047,0.006,4.742,0.646,5.731,3.448
			c0.302,0.854,0.251,1.607-0.15,2.24c-0.678,1.068-2.366,1.744-5.017,2.01C240.239,379.326,239.548,379.362,238.869,379.362z"/>
		<path d="M242.686,273.66c-0.101,2.106-0.189,4.214-0.282,6.32c-0.673,15.088-1.064,30.188-1.409,45.289
			c-0.277,12.194-0.45,24.39-0.53,36.588c-0.021,3.756-0.034,7.511-0.03,11.266c0,0.686,0.026,1.392,0.059,2.111
			c-1.665-0.025-4.348-0.173-8.263-0.682c1.375-32.867,1.892-65.81,1.703-98.702c-0.009-2.022-0.173-4.107-0.063-6.127
			c0.223-4.066,5.282-6.354,8.04-2.885C243.409,268.724,242.791,271.441,242.686,273.66z"/>
		<path fill="#E3FEFF" d="M219.566,391.63c2.021-11.115-6.711-22.152-22.657-21.749c-15.946,0.404-22.456,13.221-21.245,19.074
			c1.211,5.854,16.249-6.005,26.341-3.179C212.098,388.603,219.163,393.851,219.566,391.63z"/>
	</g>
	<g>
		<path d="M274.177,388.713c-4.721-7.752-7.168-16.721-9.023-25.532c-1.914-9.09-3.088-18.344-3.933-27.59
			c-1.509-16.515-2.464-33.371-1.591-49.952c0.153-2.9,0.43-14.221,3.488-15.698c2.883-1.393,6.418,0.426,6.909,3.61
			c0.315,2.051-0.964,12.049-1.181,14.101c-0.377,3.588-0.607,7.193-0.758,10.797c-0.791,18.945,0.025,38.285,3.512,56.951
			c1.609,8.611,3.737,17.524,8.06,25.229c1.247,2.222,3.515,4.43,2.576,7.196C281.036,391.361,276.121,391.872,274.177,388.713z"/>
		<path fill="#C8EFF3" d="M296.772,404.149c-0.206-0.063-0.407-0.135-0.602-0.206c-1.623-0.602-2.905-1.463-3.919-2.451
			c-3.822-3.718-3.822-9.197-3.822-9.197c-0.538-3.839-0.618-7.968-0.291-12.132c0.034-0.449,0.072-0.903,0.119-1.357
			c0.121-1.229,0.277-2.456,0.471-3.68c2.258-14.566,9.293-28.237,19.02-29.806c8.764-1.417,17.165,0.812,22.27,4.453
			c2.822,2.014,4.639,4.457,4.95,6.959C335.845,363.759,305.111,406.781,296.772,404.149z"/>
		<path fill="#C8EFF3" d="M298.088,401.735c0,0-0.761,0.888-1.918,2.208c-2.396,2.741-6.483,7.338-8.935,9.688
			c-2.271,2.174-2.877,4.996-2.877,4.996c-6.586-1.316-16.804-12.717-14.079-22.607c0.231-0.841,0.518-1.627,0.854-2.371
			c1.198-2.683,3.023-4.781,5.173-6.61c3.401-2.901,7.619-5.126,11.463-7.914c0.164-0.122,0.328-0.228,0.488-0.319
			c0.298-0.182,0.584-0.315,0.865-0.408c3.074-1.072,5.131,2.519,6.48,7.187C297.609,392.484,298.088,401.735,298.088,401.735z"/>
		<path fill="#C8EFF3" d="M289.598,376.269l-0.476,2.128l-0.328,1.459c0,0-0.248-1.013-0.668-0.815
			c-1.711,0.815-6.556,4.058-10.379,6.938l-3.431,2.648c0,0-0.778,0.93-0.782,0.934l-2.401,4.088l-0.093,0.101
			c-0.613-1.308-2.119-4.957-1.711-8.481c0.151-1.278,1.652-2.948,3.592-4.575c0.571-0.475,1.182-0.95,1.803-1.413
			c0,0,0.005-0.009,0.009-0.009c2.279-1.673,4.739-3.149,6.231-3.881c0.535-0.261,1.086-0.483,1.641-0.669
			c2.288-0.757,4.65-0.807,6.08,0.37c0.014,0.013,0.03,0.025,0.043,0.034C289.085,375.428,289.379,375.802,289.598,376.269z"/>
		<g>
			<path fill="#A6DADD" d="M296.772,404.149c-0.206-0.063-0.407-0.135-0.602-0.206c-2.396,2.741-6.483,7.338-8.935,9.688
				c-2.271,2.174-2.877,4.996-2.877,4.996c-6.586-1.316-16.804-12.717-14.079-22.607c0.231-0.841,0.518-1.627,0.854-2.371
				l-0.093,0.101c-0.613-1.308-2.119-4.957-1.711-8.481c0.193-1.656,2.662-3.97,5.395-5.988c-1.043,0.946-4.76,9.479,2.027,7.254
				c0,0-0.177,0.177-0.445,0.505c-0.454,0.555-1.178,1.547-1.775,2.872c0,0,0,0.004-0.004,0.008
				c-1.047,2.326-1.707,5.678,0.143,9.482c3.533,7.267,6.057,11.707,10.699,8.882c4.642-2.826,6.963-5.046,6.963-5.046
				s-0.08-0.605-0.08-1.745c-0.004-2.662,0.887-6.228,3.915-14.504c1.536-4.197,3.87-10.078,6.762-15.643
				c9.285-17.863,17.169-24.512,27.089-21.572c2.822,2.014,4.639,4.457,4.95,6.959C335.845,363.759,305.111,406.781,296.772,404.149
				z"/>
			<path fill="#85C1C1" d="M308.579,406.365c-0.021,0.009-0.037,0.017-0.059,0.025c-1.951,0.824-3.801,1.43-5.5,1.821
				c-6.521,1.505-10.808-0.109-9.764-4.281c1.32-5.269,8.813-21.029,8.813-21.029c2.355-4.285,4.815-8.486,7.377-12.354
				c4.116-6.229,8.485-11.59,13.061-15.046c2.385-1.8,11.118-4.689,13.978,2.22C339.159,364.179,315.695,403.337,308.579,406.365z"
				/>
			<path fill="#6FB5B3" d="M309.143,408.257c-5.075,6.665-8.864,8.953-17.64,10.378c-9.441,1.539-10.164-1.304-7.75-5.912
				c1.14-2.174,3.313-4.251,5.299-5.837c2.224-1.787,4.205-2.956,4.205-2.956s0.012,0,0.033,0.004l15.096,2.423
				c0.047,0.008,0.093,0.017,0.135,0.033C309.316,406.609,309.66,407.58,309.143,408.257z"/>
			<path fill="#65AAA8" d="M308.579,406.365c-0.021,0.009-0.037,0.017-0.059,0.025c0.795,0.219,1.14,1.19,0.622,1.867
				c-5.075,6.665-8.894,9.625-17.669,11.051c-9.441,1.539-10.135-1.977-7.721-6.585c1.14-2.174,3.313-4.251,5.299-5.837
				c0.1-0.046,0.15-0.067,0.15-0.067s-5.449,5.904-1.514,9.537c3.945,3.643,14.685-2.119,17.561-6.206
				c0.533-0.762-0.008-1.969-0.682-2.221c-5.398-2.019-10.965-3.556-11.523-3.665c-0.021-0.004,0.265-0.586,0.265-0.586
				s9.114,0.188,15.876-2.46c8.822-3.457,19.756-25.735,21.875-34.667s-12.716-8.553-21.572,4.087c0,0-0.016-0.029-0.041-0.092
				c4.116-6.229,8.485-11.59,13.061-15.046c2.385-1.8,11.118-4.689,13.978,2.22C339.159,364.179,315.695,403.337,308.579,406.365z"
				/>
			<path fill="#A6DADD" d="M288.396,391.227c-1.01-3.532-4.355-7.589-10.504-5.006s8.687-8.266,10.504-8.519
				c0,0-0.809,4.037-0.556,7.872S288.396,391.227,288.396,391.227z"/>
			<path fill="#A6DADD" d="M288.126,379.04c-1.711,0.815-6.556,4.058-10.379,6.938l-3.431,2.648c0,0-0.778,0.93-0.782,0.934
				l-2.401,4.088l-0.093,0.101c-0.613-1.308-2.119-4.957-1.711-8.481c0.151-1.278,1.652-2.948,3.592-4.575l0.79-0.416
				c-2.372,2.22-3.583,6.308-0.858,6.56c2.726,0.252,15.543-7.821,12.918-10.647c-0.883-0.95-2.031-1.35-3.166-1.468
				c2.288-0.757,4.65-0.807,6.08,0.37c0.014,0.013,0.03,0.025,0.043,0.034C289.085,375.428,288.126,379.04,288.126,379.04z"/>
			<path fill="#68476D" d="M288.429,392.588c-0.145,0-0.27-0.106-0.291-0.253c-1.306-9.361,0.033-20.535,3.584-29.89
				c3.813-10.047,9.637-16.395,15.978-17.418c12.151-1.957,23.481,3.309,27.418,9.533c0.087,0.138,0.046,0.318-0.091,0.404
				c-0.137,0.087-0.317,0.046-0.404-0.091c-3.835-6.063-14.918-11.188-26.83-9.268c-6.129,0.988-11.786,7.201-15.522,17.047
				c-3.517,9.267-4.845,20.332-3.552,29.601c0.023,0.16-0.088,0.309-0.248,0.33C288.455,392.586,288.442,392.588,288.429,392.588z"
				/>
			<path fill="#68476D" d="M283.62,418.92c-0.025,0-0.051-0.004-0.076-0.011c-3.856-1.04-8.498-5.178-11.289-10.061
				c-2.529-4.427-3.331-9.01-2.258-12.906c1.889-6.853,7.223-10.273,12.871-13.895c1.568-1.005,3.189-2.045,4.73-3.162
				c0.124-0.09,0.248-0.175,0.37-0.252c0.136-0.087,0.317-0.046,0.404,0.091c0.087,0.136,0.046,0.317-0.091,0.404
				c-0.111,0.071-0.226,0.147-0.34,0.231c-1.554,1.127-3.183,2.171-4.758,3.181c-5.551,3.56-10.795,6.921-12.623,13.557
				c-1.031,3.745-0.25,8.17,2.202,12.46c2.72,4.759,7.215,8.783,10.933,9.786c0.156,0.042,0.249,0.203,0.207,0.359
				C283.868,418.834,283.749,418.92,283.62,418.92z"/>
			<path fill="#68476D" d="M308.579,406.657c-0.113,0-0.222-0.066-0.27-0.178c-0.063-0.149,0.006-0.321,0.155-0.385
				c7.081-3.013,30.062-40.546,27.739-48.291c-0.598-1.99-1.827-3.303-3.655-3.901c-3.456-1.131-8.188,0.564-9.865,1.831
				c-6.251,4.721-12.72,13.397-20.356,27.308c-0.067,0.143-7.49,15.778-8.785,20.959c-0.039,0.157-0.198,0.253-0.355,0.213
				c-0.156-0.039-0.252-0.198-0.213-0.355c1.309-5.236,8.525-20.438,8.832-21.083c7.686-14.001,14.205-22.736,20.525-27.509
				c1.765-1.333,6.75-3.114,10.4-1.92c2.021,0.661,3.378,2.104,4.033,4.29c1.309,4.36-4.517,16.521-10.404,26.448
				c-5.744,9.685-13.722,20.872-17.666,22.55C308.657,406.651,308.618,406.657,308.579,406.657z"/>
			<path fill="#68476D" d="M271.04,394.044c-0.109,0-0.215-0.063-0.266-0.169c-0.66-1.409-2.151-5.071-1.735-8.64
				c0.377-3.233,8.592-8.54,11.797-10.107c2.416-1.181,5.972-1.96,8.037-0.264c0.125,0.102,0.144,0.287,0.04,0.412
				c-0.103,0.125-0.287,0.143-0.412,0.04c-1.523-1.249-4.432-1.116-7.408,0.338c-3.281,1.604-11.142,6.822-11.472,9.649
				c-0.398,3.418,1.045,6.959,1.685,8.322c0.068,0.146,0.006,0.321-0.141,0.39C271.124,394.035,271.082,394.044,271.04,394.044z"/>
			<path fill="#68476D" d="M288.325,419.872c-2.822,0-4.619-0.598-5.454-1.804c-0.862-1.245-0.658-3.037,0.622-5.481
				c2.426-4.631,9.323-8.738,9.615-8.91c0.06-0.035,0.129-0.048,0.195-0.037l15.13,2.428l0,0c0.519,0.084,0.945,0.425,1.142,0.914
				c0.195,0.49,0.121,1.032-0.197,1.451c-4.811,6.316-9.211,10.173-17.465,11.191C290.573,419.789,289.378,419.872,288.325,419.872z
				 M293.318,404.236c-0.826,0.502-7.103,4.419-9.306,8.623c-1.153,2.202-1.375,3.843-0.659,4.877
				c0.996,1.438,3.852,1.879,8.488,1.307c8.05-0.992,12.355-4.771,17.07-10.964c0.193-0.254,0.238-0.582,0.119-0.879
				c-0.118-0.296-0.376-0.503-0.689-0.553L293.318,404.236z"/>
			<path fill="#E3FEFF" d="M290.868,385.323c1.967-11.051,14.229-34.667,24.069-36.786c9.841-2.119-9.806-7.682-18.923,10.294
				C288.9,372.859,290.868,385.323,290.868,385.323z"/>
			<path fill="#E3FEFF" d="M272.753,383.455c0.865-2.743,7.973-8.527,10.646-7.317c2.674,1.212-1.665,4.239-5.097,6.662
				C274.872,385.221,272.147,385.373,272.753,383.455z"/>
			<path fill="#E3FEFF" d="M277.698,390.016c-2.344,2.488,1.312,15.34,5.248,15.743c3.936,0.404,7.468-2.17,7.114-5.551
				C289.707,396.827,282.593,384.818,277.698,390.016z"/>
		</g>
	</g>
</g>
<path fill="#E25240" d="M249.167,142.469c0,0,12.912,4.702,35.847-4.563c28.616-11.542,64.093,13.86,72.831,67.947
	c6.428,40.259-9.187,80.878-40.925,106.466c-10.633,8.563-22.014,13.609-37.208,16.703c-17.135,3.5-34.783,3.666-51.98,0.486
	c-13.964-2.588-25.785-7.102-35.694-14.34c-32.911-24.115-50.438-63.971-45.967-104.525c6.15-54.424,40.377-81.384,69.509-71.134
	C238.936,147.724,249.167,142.469,249.167,142.469L249.167,142.469z"/>
<path fill="#B63830" d="M272.245,163.184c-13.39,11.417-27.706,7.427-36.877,2.538l0.01-0.004
	C235.378,165.719,248.493,135.017,272.245,163.184z"/>
<path fill="#BC443B" d="M220.43,305.479c-32.911-24.115-50.438-63.971-45.967-104.526c3.411-30.184,15.464-51.902,30.488-63.527
	c-26.298-1.301-53.466,25.313-58.879,73.218c-4.471,40.554,13.055,80.41,45.967,104.525c9.909,7.238,21.729,11.752,35.694,14.34
	c17.197,3.18,34.845,3.014,51.98-0.486c9.177-1.699,18.029-4.83,26.235-9.277c-16.461,3.092-33.352,3.117-49.823,0.074
	C242.16,317.229,230.339,312.715,220.43,305.479z"/>
<path fill="#F4F8FC" d="M191.693,273.801c-2.412,0.822-5.083,0.031-6.656-1.975c-15.949-20.307-17.116-46.027-17.189-50.98
	c-0.047-3.313,2.599-6.039,5.913-6.086c3.313-0.049,6.039,2.599,6.086,5.912c0.063,4.272,1.061,26.464,14.627,43.74
	c2.048,2.605,1.596,6.377-1.01,8.424c-0.531,0.418-1.13,0.742-1.771,0.961V273.801z"/>
<path fill="#F4F8FC" d="M177.151,208.703c-3.137,1.067-6.545-0.611-7.613-3.748c-0.346-1.018-0.413-2.109-0.192-3.161
	c0.596-3.023,1.448-5.991,2.547-8.869c1.281-3.057,4.798-4.495,7.853-3.214c3.015,1.264,4.463,4.706,3.258,7.744
	c-0.813,2.212-1.45,4.482-1.908,6.793C180.661,206.327,179.161,208.02,177.151,208.703L177.151,208.703z"/>
<g>
</g>
<g>
</g>
<g>
</g>
<g>
</g>
<g>
</g>
<g>
</g>
<g>
</g>
<g>
</g>
<g>
</g>
<g>
</g>
<g>
</g>
<g>
</g>
<g>
</g>
<g>
</g>
<g>
</g>
<line fill="none" x1="261.125" y1="267.438" x2="261.125" y2="267.438"/>
<path fill="none" d="M126.5,219.664c0,11.885,122.849,21.503,274.667,21.503"/>
<path fill="none" d="M395.834,288.807c0,11.885,122.854,21.502,274.677,21.502"/>
<g>
	<g>
		<ellipse fill="#FFFFFF" cx="219.482" cy="217.267" rx="30.501" ry="31.109"/>
		<path fill="#DDE4E8" d="M224.167,242.996c-16.834,0-30.502-13.928-30.502-31.109c0-6.639,2.04-12.8,5.554-17.876
			c-6.247,5.684-10.195,13.971-10.195,23.213c0,17.182,13.667,31.108,30.501,31.108c10.326,0,19.481-5.25,24.991-13.233
			C239.092,240.045,231.977,242.996,224.167,242.996z"/>
	</g>
	<path fill="#101C35" d="M249.375,207.374c-0.954-3.167-2.386-6.117-4.122-8.764l-1.388-1.909l-1.519-1.735
		c-0.478-0.607-1.042-1.085-1.605-1.649c-0.564-0.521-1.085-1.084-1.692-1.519c-0.607-0.477-1.172-0.911-1.735-1.345
		c-0.607-0.434-1.215-0.781-1.822-1.172l-0.911-0.563l-0.955-0.478c-0.65-0.304-1.258-0.65-1.908-0.954
		c-0.651-0.261-1.302-0.521-1.953-0.738c-0.304-0.13-0.65-0.26-0.954-0.347l-0.998-0.261c-1.041-0.217-2.777-0.563-3.818-0.824
		c-0.043,0-0.087,0-0.13,0l-0.998-0.174c-0.13,0-0.217-0.043-0.347-0.043c-0.868-0.043-1.736-0.087-2.604-0.13h-0.261h-0.13h-0.043
		h-0.131l-0.477,0.043l-0.911,0.044c-0.607,0.043-1.215,0.043-1.822,0.13c-2.561,0.391-4.99,0.867-7.202,1.778
		c-0.564,0.218-1.129,0.435-1.649,0.651c-0.521,0.26-1.041,0.521-1.562,0.824c-1.041,0.521-2.039,1.172-2.95,1.822
		c-0.391,0.261-0.738,0.521-1.085,0.781c-2.95,2.256-6.855,3.037-10.326,1.735c-2.43-0.911-4.469-2.646-4.903-5.814
		c0,0-1.735,8.157,10.283,8.765c-0.434,0.521-0.824,1.041-1.215,1.563c-2.517,1.041-9.502,3.08-15.272-3.037
		c0,0,4.729,8.287,13.58,5.51c0,0-5.597,6.118-11.715,3.428c0,0,5.901,3.991,10.327-0.868c0.043-0.043,0.043-0.043,0.043-0.087
		c-1.128,2.3-1.909,4.513-2.473,6.465c-0.305,1.389-0.651,2.604-0.738,3.731c-0.13,1.085-0.304,2.039-0.304,2.777
		c-0.043,1.519-0.087,2.343-0.087,2.343l0,0c0,0,0.044,0.824,0.087,2.343c0,0.781,0.174,1.692,0.304,2.777
		c0.13,1.128,0.434,2.343,0.738,3.73c0.78,2.734,1.952,5.988,3.991,9.242s4.946,6.552,8.721,9.111
		c3.731,2.604,8.374,4.382,13.363,4.902c0.607,0.044,1.259,0.044,1.909,0.087l0.954,0.044h0.478c0.261,0,0.348,0,0.521-0.044
		c0.607-0.043,1.259-0.087,1.866-0.173c0.304-0.044,0.607-0.044,0.954-0.087l0.998-0.174c1.041-0.261,2.733-0.65,3.774-0.911
		c0.044,0,0.087-0.043,0.131-0.043l0.954-0.304c0.304-0.087,0.651-0.261,0.955-0.391c0.65-0.261,1.258-0.521,1.908-0.781
		c0.608-0.304,1.216-0.65,1.866-0.954l0.911-0.478l0.911-0.607c0.607-0.391,1.215-0.781,1.779-1.215
		c0.563-0.434,1.128-0.911,1.691-1.345c2.213-1.909,4.339-4.035,6.074-6.639c0.478-0.607,0.824-1.302,1.259-1.952l0.607-0.998
		c0.217-0.348,0.347-0.694,0.521-1.042c0.347-0.737,0.737-1.388,0.998-2.169l0.824-2.256c0.998-3.081,1.605-6.335,1.692-9.763
		C250.72,214.056,250.286,210.542,249.375,207.374z M248.117,226.595c-0.911,2.994-2.3,5.771-3.992,8.287l-1.345,1.822l-1.476,1.649
		c-0.477,0.563-1.041,1.041-1.562,1.519c-0.564,0.477-1.041,0.998-1.648,1.388c-0.564,0.435-1.129,0.825-1.692,1.259
		c-0.564,0.391-1.172,0.694-1.779,1.041l-0.867,0.521l-0.911,0.435c-0.607,0.26-1.215,0.563-1.822,0.824
		c-0.607,0.217-1.259,0.434-1.866,0.607c-0.304,0.087-0.607,0.217-0.911,0.304l-0.954,0.217c-0.607,0.13-1.259,0.26-1.866,0.434
		c-0.607,0.087-1.215,0.13-1.865,0.217l-0.911,0.131c-0.304,0.043-0.651,0-0.955,0.043c-0.65,0-1.258,0.043-1.865,0.043
		c-0.13,0-0.347,0-0.434,0l-0.435-0.043l-0.911-0.043c-0.607-0.044-1.171-0.087-1.778-0.131c-4.686-0.607-8.981-2.213-12.626-4.382
		s-6.638-4.989-8.851-7.94c-2.213-2.95-3.602-6.03-4.426-8.677c-0.347-1.346-0.737-2.517-0.868-3.645
		c-0.173-1.085-0.347-1.996-0.347-2.733c-0.087-1.476-0.13-2.3-0.13-2.344c0,0,0.043-0.824,0.13-2.299
		c0-0.781,0.174-1.692,0.347-2.733c0.131-1.085,0.521-2.3,0.868-3.645c0.824-2.647,2.213-5.728,4.426-8.678
		c2.169-2.95,5.206-5.771,8.851-7.896c0.478-0.261,0.911-0.521,1.389-0.781c0.478-0.304,0.998-0.434,1.476-0.694
		c0.477-0.217,0.997-0.478,1.519-0.694c0.521-0.174,1.041-0.347,1.562-0.563c1.041-0.435,2.169-0.651,3.254-0.911
		c0.564-0.174,1.128-0.218,1.692-0.304c0.564-0.087,1.128-0.174,1.692-0.261c0.607-0.043,1.214-0.043,1.821-0.087l0.912-0.043h0.477
		l0.391,0.043c1.215,0.087,2.43,0.044,3.645,0.304c0.607,0.087,1.215,0.174,1.822,0.261c0.607,0.173,1.215,0.304,1.822,0.477
		l0.911,0.218c0.304,0.086,0.607,0.217,0.911,0.304c0.607,0.217,1.215,0.434,1.822,0.65c0.607,0.261,1.172,0.564,1.779,0.824
		l0.911,0.435l0.867,0.521c0.564,0.347,1.172,0.694,1.736,1.041c0.563,0.391,1.084,0.824,1.648,1.215
		c2.126,1.735,4.165,3.731,5.857,6.161c1.692,2.386,3.124,5.033,4.078,7.983c0.955,2.95,1.519,5.9,1.648,9.241
		C249.375,220.391,248.985,223.602,248.117,226.595z"/>
	<g>
		<path fill="#129ABA" d="M222.736,232.973c-6.074,0-11.021-4.945-11.021-11.021c0-6.074,4.946-11.021,11.021-11.021
			s11.021,4.946,11.021,11.021C233.756,228.028,228.81,232.973,222.736,232.973z"/>
		<circle fill="#101C35" cx="222.736" cy="221.952" r="9.198"/>
		<circle fill="#FFFFFF" cx="227.378" cy="218.482" r="4.816"/>
		<circle fill="#FFFFFF" cx="217.745" cy="226.074" r="2.126"/>
	</g>
</g>
<g>
	<g>
		<ellipse fill="#FFFFFF" cx="284.52" cy="217.267" rx="30.501" ry="31.109"/>
		<path fill="#DDE4E8" d="M289.205,242.996c-16.834,0-30.502-13.928-30.502-31.109c0-6.639,2.04-12.8,5.554-17.876
			c-6.247,5.684-10.195,13.971-10.195,23.213c0,17.182,13.667,31.108,30.501,31.108c10.326,0,19.481-5.25,24.991-13.233
			C304.131,240.045,297.015,242.996,289.205,242.996z"/>
	</g>
	<path fill="#101C35" d="M312.157,201.865c-0.174-0.304-0.347-0.651-0.521-0.955c8.33,2.083,12.756-5.727,12.756-5.727
		c-5.033,5.336-10.977,4.469-14.101,3.471v-0.043l-1.389-1.909l-0.087-0.087c11.021-0.955,9.372-8.678,9.372-8.678
		c-0.607,4.729-4.859,6.248-8.635,6.682c-1.388,0.174-2.776-0.304-3.774-1.258l0,0c-0.564-0.521-1.085-1.085-1.692-1.519
		c-0.607-0.478-1.171-0.911-1.735-1.346c-0.607-0.434-1.215-0.78-1.822-1.171l-0.911-0.651l-0.954-0.477
		c-0.651-0.304-1.259-0.651-1.909-0.955c-0.651-0.26-1.302-0.521-1.953-0.737c-0.304-0.13-0.65-0.261-0.954-0.348l-0.998-0.26
		c-1.041-0.217-2.776-0.564-3.818-0.824c-0.043,0-0.086,0-0.13,0l-0.998-0.174c-0.13,0-0.217-0.043-0.347-0.043
		c-0.868-0.044-1.735-0.087-2.604-0.131h-0.261h-0.13h-0.043h-0.131l-0.477,0.044l-0.911,0.043c-0.607,0.044-1.215,0.044-1.822,0.13
		c-2.561,0.391-4.99,0.868-7.202,1.779c-0.564,0.217-1.129,0.434-1.649,0.65c-0.521,0.261-1.041,0.521-1.562,0.825
		c-1.041,0.521-2.039,1.171-2.95,1.822c-3.775,2.603-6.639,5.9-8.722,9.154c-2.039,3.298-3.254,6.552-3.991,9.285
		c-0.304,1.389-0.651,2.604-0.737,3.731c-0.131,1.085-0.304,2.039-0.304,2.776c-0.044,1.519-0.087,2.344-0.087,2.344l0,0
		c0,0,0.043,0.824,0.087,2.343c0,0.78,0.173,1.691,0.304,2.776c0.13,1.128,0.434,2.343,0.737,3.731
		c0.781,2.733,1.952,5.987,3.991,9.241c2.04,3.255,4.946,6.552,8.722,9.112c3.731,2.603,8.373,4.382,13.363,4.902
		c0.607,0.043,1.258,0.043,1.909,0.087l0.954,0.043h0.478c0.26,0,0.347,0,0.521-0.043c0.607-0.044,1.258-0.087,1.865-0.174
		c0.304-0.043,0.607-0.043,0.955-0.087l0.998-0.173c1.041-0.261,2.733-0.651,3.774-0.911c0.043,0,0.087-0.044,0.13-0.044
		l0.955-0.304c0.304-0.087,0.65-0.26,0.954-0.391c0.651-0.26,1.259-0.521,1.909-0.78c0.607-0.304,1.215-0.651,1.866-0.955
		l0.911-0.478l0.911-0.607c0.607-0.39,1.215-0.78,1.778-1.215c0.564-0.434,1.128-0.911,1.692-1.345
		c2.213-1.909,4.339-4.035,6.074-6.639c0.478-0.607,0.824-1.301,1.258-1.952l0.607-0.998c0.218-0.347,0.348-0.694,0.521-1.041
		c0.347-0.737,0.737-1.389,0.997-2.169l0.825-2.257c0.998-3.08,1.605-6.334,1.691-9.762c0.044-3.168-0.391-6.682-1.301-9.85
		c-0.348-1.128-0.738-2.169-1.172-3.21c4.252,3.384,9.328-0.044,9.328-0.044C318.232,206.03,314.197,203.513,312.157,201.865z
		 M313.156,226.595c-0.911,2.994-2.3,5.771-3.992,8.287l-1.345,1.822l-1.475,1.649c-0.478,0.563-1.042,1.041-1.563,1.519
		c-0.563,0.477-1.041,0.998-1.648,1.388c-0.564,0.435-1.128,0.825-1.692,1.259c-0.563,0.391-1.171,0.694-1.778,1.041l-0.868,0.521
		l-0.911,0.435c-0.607,0.26-1.215,0.563-1.822,0.824c-0.607,0.217-1.259,0.434-1.866,0.607c-0.304,0.087-0.607,0.217-0.911,0.304
		l-0.954,0.217c-0.607,0.13-1.258,0.26-1.865,0.434c-0.607,0.087-1.215,0.13-1.866,0.217l-0.911,0.131
		c-0.304,0.043-0.65,0-0.954,0.043c-0.651,0-1.259,0.043-1.866,0.043c-0.13,0-0.347,0-0.434,0l-0.434-0.043l-0.911-0.043
		c-0.607-0.044-1.172-0.087-1.779-0.131c-4.686-0.607-8.981-2.213-12.626-4.382s-6.638-4.989-8.851-7.94
		c-2.213-2.95-3.602-6.03-4.426-8.677c-0.348-1.346-0.737-2.517-0.868-3.645c-0.173-1.085-0.347-1.996-0.347-2.733
		c-0.087-1.476-0.13-2.3-0.13-2.344c0,0,0.043-0.824,0.13-2.299c0-0.781,0.174-1.692,0.347-2.733c0.131-1.085,0.521-2.3,0.868-3.645
		c0.824-2.647,2.213-5.728,4.426-8.678c2.169-2.95,5.206-5.771,8.851-7.896c0.478-0.261,0.911-0.521,1.389-0.781
		c0.478-0.304,0.998-0.434,1.476-0.694c0.477-0.217,0.997-0.478,1.519-0.694c0.521-0.174,1.041-0.347,1.562-0.563
		c1.041-0.435,2.169-0.651,3.254-0.911c0.564-0.174,1.128-0.218,1.692-0.304c0.563-0.087,1.128-0.174,1.692-0.261
		c0.607-0.043,1.215-0.043,1.822-0.087l0.911-0.043h0.477l0.391,0.043c1.215,0.087,2.43,0.044,3.645,0.304
		c0.607,0.087,1.215,0.174,1.822,0.261c0.607,0.173,1.215,0.304,1.822,0.477l0.911,0.218c0.304,0.086,0.607,0.217,0.911,0.304
		c0.607,0.217,1.215,0.434,1.822,0.65c0.607,0.261,1.172,0.564,1.779,0.824l0.911,0.435l0.868,0.521
		c0.563,0.347,1.171,0.694,1.735,1.041c0.563,0.391,1.084,0.824,1.648,1.215c2.126,1.735,4.165,3.731,5.857,6.161
		c1.692,2.386,3.124,5.033,4.078,7.983c0.955,2.95,1.519,5.9,1.649,9.241C314.413,220.391,314.024,223.602,313.156,226.595z"/>
	<g>
		<path fill="#129ABA" d="M280.875,232.973c-6.074,0-11.021-4.945-11.021-11.021c0-6.074,4.946-11.021,11.021-11.021
			s11.021,4.946,11.021,11.021C291.896,228.028,286.949,232.973,280.875,232.973z"/>
		<circle fill="#101C35" cx="280.875" cy="221.952" r="9.198"/>
		<circle fill="#FFFFFF" cx="285.561" cy="218.482" r="4.816"/>
		<circle fill="#FFFFFF" cx="275.929" cy="226.074" r="2.126"/>
	</g>
</g>
<g>
	<g>
		<g>
			<path fill="#FFFFFF" d="M254.061,299.721c-16.148,0-29.285-11.451-29.285-25.527c0-5.857,2.372-8.705,7.254-8.705
				c2.343,0,5.105,0.637,8.304,1.374c4.107,0.946,8.762,2.018,13.727,2.018c4.961,0,9.617-1.071,13.723-2.018
				c3.197-0.737,5.963-1.374,8.307-1.374c4.882,0,7.257,2.848,7.257,8.705C283.348,288.27,270.208,299.721,254.061,299.721z"/>
			<path d="M276.091,267.302c3.418,0,5.441,1.58,5.441,6.892c0,13.097-12.299,23.713-27.471,23.713
				c-15.174,0-27.471-10.616-27.471-23.713c0-5.312,2.023-6.892,5.44-6.892c5.005,0,13.009,3.393,22.031,3.393
				C263.079,270.695,271.083,267.302,276.091,267.302 M276.091,263.674L276.091,263.674c-2.55,0-5.408,0.658-8.715,1.42
				c-4.011,0.924-8.558,1.972-13.315,1.972c-4.756,0-9.304-1.048-13.319-1.972c-3.307-0.762-6.163-1.42-8.712-1.42
				c-3.388,0-9.068,1.366-9.068,10.52c0,15.075,13.948,27.341,31.099,27.341c17.147,0,31.098-12.266,31.098-27.341
				C285.159,265.04,279.481,263.674,276.091,263.674L276.091,263.674z"/>
		</g>
		<g>
			<path fill="#DD3F72" d="M254.144,299.721c-14.839,0-27.341-9.676-29.072-22.51c-0.093-0.679,0.206-1.351,0.772-1.738
				c0.307-0.212,0.664-0.318,1.024-0.318c0.299,0,0.603,0.075,0.877,0.225c6.241,3.438,15.582,5.411,25.622,5.411
				c10.946,0,21.099-2.368,27.173-6.332c0.299-0.197,0.646-0.294,0.992-0.294c0.321,0,0.642,0.084,0.931,0.256
				c0.596,0.357,0.936,1.022,0.874,1.714C282.197,289.361,269.372,299.721,254.144,299.721z"/>
			<g>
				<path d="M281.532,275.978c-1.06,12.262-12.911,21.929-27.389,21.929c-14.083,0-25.683-9.149-27.276-20.938
					c6.24,3.437,15.789,5.636,26.499,5.636C265.08,282.605,275.405,279.978,281.532,275.978 M281.532,272.35
					c-0.693,0-1.385,0.197-1.984,0.589c-5.788,3.78-15.575,6.037-26.181,6.037c-9.743,0-18.766-1.89-24.75-5.185
					c-0.547-0.302-1.147-0.45-1.749-0.45c-0.721,0-1.437,0.213-2.053,0.636c-1.127,0.774-1.727,2.119-1.542,3.478
					c1.855,13.729,15.126,24.08,30.871,24.08c16.16,0,29.779-11.089,31.004-25.246c0.117-1.382-0.563-2.712-1.753-3.425
					C282.823,272.521,282.174,272.35,281.532,272.35L281.532,272.35z"/>
			</g>
		</g>
	</g>
</g>
<path fill="#8EAD6D" d="M224.527,84.682c0.227,0.648,0.288,1.342,0.179,2.02c-8.901,55.251-88.123,39.382-99.854,36.496
	c-0.393-0.099-0.631-0.496-0.532-0.889c0.066-0.261,0.269-0.465,0.528-0.531c5.234-1.365,18.651-4.457,37.607-25.144
	c26.25-28.638,52.21-18.377,60.131-14.206C223.494,82.909,224.187,83.714,224.527,84.682z"/>
<path fill="#51663D" d="M242.318,79.594c-0.924,0.046-22.842,1.238-40.509,10.8c-4.697,2.543-8.407,5.654-11.996,8.665
	c-5.183,4.349-9.661,8.104-15.974,9.232c-1.295,0.23-2.157,1.467-1.927,2.762c0.203,1.135,1.189,1.962,2.342,1.963
	c0.142,0.001,0.283-0.011,0.423-0.036c7.564-1.35,12.729-5.684,18.197-10.271c3.406-2.857,6.929-5.813,11.202-8.125
	c16.696-9.038,38.263-10.223,38.479-10.233L242.318,79.594z"/>
<path fill="#51663D" d="M162.043,117.305c-1.315,0-2.381-1.065-2.381-2.381c0-1.129,0.792-2.103,1.897-2.331
	c1.844-0.313,3.623-0.935,5.262-1.836c1.169-0.602,2.605-0.142,3.207,1.027c0.602,1.17,0.142,2.605-1.027,3.207l0,0
	c-2.02,1.099-4.204,1.863-6.468,2.265C162.371,117.29,162.207,117.306,162.043,117.305z"/>
<path fill="#8EAD6D" d="M270.229,94.512c7.921-4.171,33.881-14.432,60.131,14.206c18.957,20.687,32.373,23.778,37.607,25.144
	c0.26,0.066,0.462,0.271,0.528,0.531c0.099,0.393-0.14,0.79-0.532,0.889c-11.73,2.886-90.953,18.755-99.854-36.496
	c-0.109-0.678-0.048-1.371,0.179-2.02C268.628,95.797,269.322,94.992,270.229,94.512z"/>
<path fill="#51663D" d="M250.259,96.434c0.216,0.011,21.783,1.195,38.479,10.233c4.273,2.313,7.795,5.268,11.201,8.125
	c5.469,4.588,10.634,8.922,18.197,10.271c0.141,0.025,0.281,0.037,0.424,0.036c1.152-0.001,2.139-0.828,2.342-1.963
	c0.23-1.295-0.632-2.531-1.927-2.762c-6.313-1.128-10.791-4.884-15.974-9.232c-3.589-3.011-7.299-6.122-11.996-8.665
	c-17.666-9.562-39.585-10.754-40.509-10.8L250.259,96.434z"/>
<path fill="#51663D" d="M330.283,129.34c-2.265-0.401-4.449-1.166-6.469-2.265l0,0c-1.169-0.602-1.629-2.037-1.027-3.207
	c0.602-1.169,2.038-1.629,3.207-1.027c1.639,0.901,3.418,1.522,5.262,1.836c1.105,0.229,1.898,1.202,1.898,2.331
	c0,1.315-1.066,2.381-2.382,2.381C330.608,129.39,330.445,129.373,330.283,129.34z"/>
<path fill="#51663D" d="M255.874,151.192c0.192-1.097,4.639-27.141-1.488-50.317c-1.63-6.162-4.163-11.31-6.613-16.289
	c-3.54-7.191-6.598-13.405-6.202-21.105c0.082-1.579-1.085-2.907-2.609-2.966c-1.334-0.05-2.529,0.899-2.835,2.253
	c-0.038,0.166-0.063,0.335-0.071,0.505c-0.475,9.227,3.054,16.393,6.789,23.98c2.327,4.726,4.731,9.613,6.213,15.22
	c5.792,21.904,1.43,47.532,1.385,47.789L255.874,151.192z"/>
</svg>
